<?xml version="1.0" encoding="UTF-8"?>
<svg xmlns="http://www.w3.org/2000/svg" version="1.1" width="200" height="200" viewBox="0 0 200 200"><rect x="0" y="0" width="200" height="200" fill="#ffffff"/><g transform="scale(5.714)"><g transform="translate(1,1)"><defs><linearGradient gradientUnits="userSpaceOnUse" x1="0" y1="0" x2="33" y2="33" id="g1"><stop offset="0%" stop-color="#ff0000"/><stop offset="100%" stop-color="#0000ff"/></linearGradient></defs><path fill-rule="evenodd" d="M9 0L9 1L8 1L8 2L9 2L9 3L8 3L8 4L10 4L10 7L11 7L11 4L12 4L12 5L13 5L13 4L17 4L17 5L20 5L20 7L21 7L21 8L22 8L22 7L23 7L23 6L22 6L22 7L21 7L21 5L24 5L24 8L23 8L23 9L22 9L22 10L21 10L21 9L18 9L18 8L17 8L17 6L16 6L16 5L14 5L14 7L15 7L15 8L13 8L13 6L12 6L12 9L18 9L18 10L17 10L17 11L18 11L18 12L16 12L16 10L14 10L14 12L12 12L12 11L13 11L13 10L11 10L11 11L10 11L10 9L11 9L11 8L6 8L6 9L9 9L9 10L8 10L8 12L5 12L5 11L4 11L4 9L5 9L5 8L0 8L0 9L3 9L3 11L1 11L1 10L0 10L0 13L1 13L1 14L0 14L0 16L1 16L1 17L0 17L0 18L1 18L1 17L2 17L2 16L3 16L3 15L2 15L2 13L3 13L3 14L4 14L4 16L5 16L5 18L4 18L4 19L3 19L3 18L2 18L2 21L1 21L1 20L0 20L0 25L1 25L1 22L2 22L2 25L5 25L5 24L6 24L6 25L7 25L7 24L8 24L8 23L9 23L9 24L11 24L11 23L9 23L9 21L10 21L10 20L11 20L11 22L15 22L15 24L13 24L13 23L12 23L12 24L13 24L13 25L11 25L11 26L12 26L12 27L11 27L11 28L10 28L10 25L8 25L8 27L9 27L9 28L8 28L8 33L11 33L11 32L12 32L12 33L16 33L16 32L15 32L15 31L17 31L17 29L19 29L19 30L22 30L22 31L20 31L20 33L21 33L21 32L23 32L23 33L26 33L26 32L23 32L23 30L24 30L24 31L25 31L25 30L26 30L26 31L27 31L27 30L31 30L31 31L30 31L30 32L29 32L29 31L28 31L28 32L27 32L27 33L28 33L28 32L29 32L29 33L30 33L30 32L31 32L31 33L32 33L32 32L31 32L31 31L32 31L32 30L31 30L31 29L30 29L30 28L31 28L31 26L33 26L33 25L32 25L32 24L33 24L33 23L32 23L32 22L33 22L33 21L32 21L32 22L30 22L30 24L31 24L31 26L30 26L30 25L29 25L29 24L28 24L28 23L29 23L29 22L28 22L28 21L30 21L30 20L33 20L33 19L32 19L32 18L33 18L33 17L32 17L32 18L30 18L30 20L28 20L28 19L29 19L29 18L28 18L28 17L30 17L30 16L31 16L31 14L33 14L33 12L32 12L32 11L31 11L31 10L33 10L33 9L32 9L32 8L31 8L31 10L30 10L30 11L29 11L29 12L28 12L28 13L25 13L25 11L26 11L26 10L27 10L27 11L28 11L28 10L27 10L27 9L28 9L28 8L27 8L27 9L26 9L26 8L25 8L25 5L24 5L24 4L25 4L25 2L22 2L22 0L18 0L18 1L21 1L21 2L19 2L19 3L15 3L15 2L17 2L17 1L14 1L14 0L13 0L13 1L11 1L11 2L10 2L10 0ZM23 0L23 1L24 1L24 0ZM13 1L13 2L12 2L12 4L13 4L13 3L14 3L14 1ZM10 3L10 4L11 4L11 3ZM19 3L19 4L24 4L24 3ZM8 5L8 7L9 7L9 5ZM15 6L15 7L16 7L16 6ZM18 6L18 7L19 7L19 6ZM24 8L24 9L25 9L25 10L22 10L22 12L21 12L21 10L18 10L18 11L20 11L20 12L18 12L18 13L13 13L13 14L14 14L14 15L13 15L13 16L12 16L12 13L11 13L11 12L10 12L10 13L11 13L11 16L10 16L10 15L9 15L9 16L8 16L8 14L9 14L9 13L5 13L5 14L7 14L7 15L6 15L6 16L7 16L7 17L6 17L6 18L8 18L8 19L9 19L9 20L7 20L7 19L6 19L6 20L7 20L7 21L6 21L6 22L5 22L5 19L4 19L4 20L3 20L3 21L2 21L2 22L5 22L5 23L4 23L4 24L5 24L5 23L6 23L6 24L7 24L7 23L8 23L8 21L9 21L9 20L10 20L10 18L11 18L11 20L12 20L12 21L13 21L13 20L14 20L14 21L15 21L15 22L16 22L16 23L17 23L17 24L16 24L16 25L13 25L13 26L14 26L14 27L13 27L13 28L14 28L14 29L12 29L12 28L11 28L11 29L9 29L9 32L10 32L10 30L11 30L11 31L13 31L13 32L14 32L14 29L15 29L15 30L16 30L16 29L17 29L17 28L19 28L19 29L24 29L24 30L25 30L25 29L24 29L24 27L23 27L23 26L22 26L22 27L23 27L23 28L21 28L21 27L20 27L20 26L21 26L21 25L23 25L23 24L24 24L24 22L26 22L26 21L28 21L28 20L27 20L27 18L26 18L26 17L27 17L27 16L28 16L28 15L29 15L29 16L30 16L30 14L29 14L29 13L32 13L32 12L29 12L29 13L28 13L28 14L26 14L26 17L25 17L25 19L24 19L24 18L21 18L21 17L23 17L23 16L25 16L25 13L24 13L24 12L23 12L23 11L25 11L25 10L26 10L26 9L25 9L25 8ZM29 8L29 9L30 9L30 8ZM6 10L6 11L7 11L7 10ZM1 12L1 13L2 13L2 12ZM20 12L20 13L18 13L18 14L17 14L17 15L19 15L19 14L20 14L20 13L21 13L21 16L20 16L20 17L19 17L19 16L17 16L17 17L16 17L16 16L15 16L15 15L16 15L16 14L15 14L15 15L14 15L14 16L13 16L13 17L11 17L11 18L12 18L12 20L13 20L13 17L14 17L14 18L15 18L15 20L17 20L17 21L18 21L18 22L20 22L20 21L21 21L21 23L20 23L20 25L19 25L19 23L18 23L18 24L17 24L17 25L16 25L16 26L15 26L15 27L14 27L14 28L15 28L15 29L16 29L16 28L15 28L15 27L17 27L17 26L20 26L20 25L21 25L21 24L23 24L23 22L24 22L24 21L25 21L25 20L26 20L26 19L25 19L25 20L24 20L24 19L18 19L18 20L17 20L17 17L19 17L19 18L20 18L20 17L21 17L21 16L23 16L23 14L24 14L24 13L21 13L21 12ZM1 15L1 16L2 16L2 15ZM32 15L32 16L33 16L33 15ZM9 16L9 17L8 17L8 18L10 18L10 16ZM14 16L14 17L15 17L15 18L16 18L16 17L15 17L15 16ZM18 20L18 21L20 21L20 20ZM21 20L21 21L22 21L22 22L23 22L23 21L24 21L24 20L23 20L23 21L22 21L22 20ZM6 22L6 23L7 23L7 22ZM27 22L27 23L26 23L26 24L27 24L27 23L28 23L28 22ZM25 25L25 28L28 28L28 25ZM26 26L26 27L27 27L27 26ZM19 27L19 28L20 28L20 27ZM29 27L29 28L30 28L30 27ZM32 28L32 29L33 29L33 28ZM11 29L11 30L12 30L12 29ZM26 29L26 30L27 30L27 29ZM18 31L18 32L17 32L17 33L18 33L18 32L19 32L19 31ZM0 0L7 0L7 7L0 7ZM1 1L1 6L6 6L6 1ZM5 3.5A1.5 1.5 0 0 1 3.5 5A1.5 1.5 0 0 1 2 3.5A1.5 1.5 0 0 1 3.5 2A1.5 1.5 0 0 1 5 3.5ZM26 0L33 0L33 7L26 7ZM27 1L27 6L32 6L32 1ZM31 3.5A1.5 1.5 0 0 1 29.5 5A1.5 1.5 0 0 1 28 3.5A1.5 1.5 0 0 1 29.5 2A1.5 1.5 0 0 1 31 3.5ZM0 26L7 26L7 33L0 33ZM1 27L1 32L6 32L6 27ZM5 29.5A1.5 1.5 0 0 1 3.5 31A1.5 1.5 0 0 1 2 29.5A1.5 1.5 0 0 1 3.5 28A1.5 1.5 0 0 1 5 29.5Z" fill="url(#g1)"/></g></g></svg>
