<svg width="42" height="40" viewBox="0 0 42 40" fill="none" xmlns="http://www.w3.org/2000/svg">
<path d="M20.923 2.40002C10.7641 2.40002 2.51074 10.2893 2.51074 20C2.51074 28.8153 9.31285 36.1107 18.172 37.3828L19.1331 37.5219V23.6532H14.7834V20.8375H19.1331V17.0985C19.1331 14.796 19.7111 13.2796 20.668 12.3281C21.6249 11.3767 23.0387 10.8969 25.0063 10.8969C26.5795 10.8969 27.1916 10.988 27.7737 11.0563V13.361H25.7255C24.5634 13.361 23.6099 13.9807 23.115 14.8063C22.6201 15.6318 22.4661 16.6175 22.4661 17.6219V20.836H27.5906L27.1345 23.6516H22.4661V37.5438L23.4158 37.4203C32.4008 36.2555 39.3353 28.9015 39.3353 20C39.3353 10.2893 31.0819 2.40002 20.923 2.40002ZM20.923 4.00002C30.1773 4.00002 37.6614 11.154 37.6614 20C37.6614 27.7839 31.8329 34.1855 24.1399 35.6266V25.2516H28.5697L29.5423 19.236H24.1399V17.6219C24.1399 16.7919 24.2988 16.0483 24.5666 15.6016C24.8343 15.1549 25.0924 14.961 25.7255 14.961H29.4475V9.60784L28.7217 9.51409C28.2198 9.44916 27.0737 9.2969 25.0063 9.2969C22.744 9.2969 20.8021 9.88598 19.4617 11.2188C18.1212 12.5516 17.4593 14.5361 17.4593 17.0985V19.2375H13.1096V25.2531H17.4593V35.5766C9.88987 34.0439 4.18458 27.6996 4.18458 20C4.18458 11.154 11.6687 4.00002 20.923 4.00002Z" fill="white"/>
</svg>
