<svg width="43" height="40" viewBox="0 0 43 40" fill="none" xmlns="http://www.w3.org/2000/svg">
<path d="M13.6983 2.40002C7.69969 2.40002 2.81836 7.06601 2.81836 12.8V27.2C2.81836 32.934 7.69969 37.6 13.6983 37.6H28.7629C34.7616 37.6 39.6429 32.934 39.6429 27.2V12.8C39.6429 7.06601 34.7616 2.40002 28.7629 2.40002H13.6983ZM13.6983 4.00002H28.7629C33.8568 4.00002 37.969 7.93084 37.969 12.8V27.2C37.969 32.0692 33.8568 36 28.7629 36H13.6983C8.60443 36 4.4922 32.0692 4.4922 27.2V12.8C4.4922 7.93084 8.60443 4.00002 13.6983 4.00002ZM31.2737 8.80002C30.8297 8.80002 30.404 8.9686 30.0901 9.26865C29.7762 9.56871 29.5998 9.97568 29.5998 10.4C29.5998 10.8244 29.7762 11.2313 30.0901 11.5314C30.404 11.8315 30.8297 12 31.2737 12C31.7176 12 32.1434 11.8315 32.4573 11.5314C32.7712 11.2313 32.9475 10.8244 32.9475 10.4C32.9475 9.97568 32.7712 9.56871 32.4573 9.26865C32.1434 8.9686 31.7176 8.80002 31.2737 8.80002ZM21.2306 11.2C16.1561 11.2 12.0245 15.1494 12.0245 20C12.0245 24.8507 16.1561 28.8 21.2306 28.8C26.3051 28.8 30.4368 24.8507 30.4368 20C30.4368 15.1494 26.3051 11.2 21.2306 11.2ZM21.2306 12.8C25.4005 12.8 28.7629 16.0141 28.7629 20C28.7629 23.986 25.4005 27.2 21.2306 27.2C17.0607 27.2 13.6983 23.986 13.6983 20C13.6983 16.0141 17.0607 12.8 21.2306 12.8Z" fill="white"/>
</svg>
