<svg width="46" height="45" viewBox="0 0 46 45" fill="none" xmlns="http://www.w3.org/2000/svg">
<path d="M11.1593 39.375C10.3156 39.375 9.56559 39.1172 8.90934 38.6016C8.25309 38.0859 7.79997 37.4219 7.54997 36.6094L2.76872 19.2656C2.61247 18.6719 2.71403 18.125 3.0734 17.625C3.43278 17.125 3.92497 16.875 4.54997 16.875H13.4562L21.7062 4.59375C21.8625 4.34375 22.0812 4.14062 22.3625 3.98438C22.6437 3.82812 22.9406 3.75 23.2531 3.75C23.5656 3.75 23.8625 3.82812 24.1437 3.98438C24.425 4.14062 24.6437 4.34375 24.8 4.59375L33.05 16.875H42.05C42.675 16.875 43.1672 17.125 43.5265 17.625C43.8859 18.125 43.9875 18.6719 43.8312 19.2656L39.05 36.6094C38.8 37.4219 38.3468 38.0859 37.6906 38.6016C37.0343 39.1172 36.2843 39.375 35.4406 39.375H11.1593ZM11.1125 35.625H35.4875L39.6125 20.625H6.98747L11.1125 35.625ZM23.3 31.875C24.3312 31.875 25.214 31.5078 25.9484 30.7734C26.6828 30.0391 27.05 29.1562 27.05 28.125C27.05 27.0938 26.6828 26.2109 25.9484 25.4766C25.214 24.7422 24.3312 24.375 23.3 24.375C22.2687 24.375 21.3859 24.7422 20.6515 25.4766C19.9172 26.2109 19.55 27.0938 19.55 28.125C19.55 29.1562 19.9172 30.0391 20.6515 30.7734C21.3859 31.5078 22.2687 31.875 23.3 31.875ZM18.0031 16.875H28.55L23.2531 9L18.0031 16.875Z" fill="white"/>
</svg>
