<svg width="43" height="40" viewBox="0 0 43 40" fill="none" xmlns="http://www.w3.org/2000/svg">
<path d="M9.74443 3.19995C6.51866 3.19995 3.88599 5.71648 3.88599 8.79995V31.1999C3.88599 34.2834 6.51866 36.7999 9.74443 36.7999H33.1782C36.404 36.7999 39.0367 34.2834 39.0367 31.1999V8.79995C39.0367 5.71648 36.404 3.19995 33.1782 3.19995H9.74443ZM9.74443 4.79995H33.1782C35.4996 4.79995 37.3628 6.58102 37.3628 8.79995V31.1999C37.3628 33.4189 35.4996 35.1999 33.1782 35.1999H9.74443C7.42309 35.1999 5.55983 33.4189 5.55983 31.1999V8.79995C5.55983 6.58102 7.42309 4.79995 9.74443 4.79995ZM11.4902 10.4L19.2088 20.8828L11.4183 29.5999H13.5106L20.1536 22.1656L25.6263 29.5999H32.2694L23.7956 18.0906L30.6675 10.4H28.5752L22.8507 16.8078L18.1333 10.4H11.4902ZM14.694 12H17.2587L29.0655 28H26.5008L14.694 12Z" fill="white"/>
</svg>
