<svg width="43" height="40" viewBox="0 0 43 40" fill="none" xmlns="http://www.w3.org/2000/svg">
<path d="M21.1921 7.19995C15.6671 7.19995 10.4789 7.59995 7.71637 8.15933C5.87579 8.55933 4.28368 9.75933 3.95022 11.6C3.61676 13.5187 3.28003 16.4 3.28003 20C3.28003 23.6 3.61349 26.4 4.03195 28.4C4.36868 30.1593 5.95752 31.4406 7.7981 31.8406C10.7306 32.4 15.7488 32.8 21.2738 32.8C26.7988 32.8 31.8171 32.4 34.7463 31.8406C36.5901 31.4406 38.179 30.2406 38.5125 28.4C38.8492 26.4 39.2676 23.5218 39.3494 19.9218C39.3494 16.3218 38.9309 13.4406 38.5125 11.4406C38.179 9.6812 36.5901 8.39995 34.7463 7.99995C31.8171 7.59995 26.7138 7.19995 21.1921 7.19995ZM21.1921 8.79995C27.2173 8.79995 32.0688 9.27808 34.4128 9.67808C35.6682 9.99995 36.6719 10.8 36.8386 11.8406C37.3421 14.4 37.6755 17.1218 37.6755 19.9218C37.5938 23.3593 37.1753 26.1593 36.8386 28.1593C36.5901 29.6781 34.9163 30.1593 34.4128 30.3218C31.3986 30.8812 26.3771 31.2781 21.3556 31.2781C16.334 31.2781 11.2308 30.9593 8.30156 30.3218C7.04617 30 6.04252 29.2 5.87579 28.1593C5.2056 25.9187 4.95387 22.9593 4.95387 20C4.95387 16.3187 5.2906 13.6 5.62406 11.9218C5.87579 10.4 7.63137 9.9187 8.04983 9.75933C10.8123 9.19995 15.9188 8.79995 21.1921 8.79995ZM16.6708 13.6V26.4L28.3877 20L16.6708 13.6ZM18.3446 16.3218L25.04 20L18.3446 23.6781V16.3218Z" fill="white"/>
</svg>
